<?xml version="1.0" encoding="UTF-8"?>
<svg id="Layer_1" xmlns="http://www.w3.org/2000/svg" version="1.1" viewBox="0 0 378.78 410.09">
  <!-- Generator: Adobe Illustrator 29.7.0, SVG Export Plug-In . SVG Version: 2.1.1 Build 138)  -->
  <defs>
    <style>
      .st0 {
        fill: #fff;
      }
    </style>
  </defs>
  <g>
    <g>
      <g>
        <circle cx="144.11" cy="380.63" r="14.85"/>
        <path d="M183.88,340.85c-5.8-5.8-15.2-5.8-21,0-5.8,5.8-5.8,15.2,0,21,5.8,5.8,15.2,5.8,21,0,5.8-5.8,5.8-15.2,0-21Z"/>
        <path d="M213.16,311.57c-5.8-5.8-15.2-5.8-21,0-5.8,5.8-5.8,15.2,0,21,5.8,5.8,15.2,5.8,21,0,5.8-5.8,5.8-15.2,0-21Z"/>
        <path d="M242.43,282.3c-5.8-5.8-15.2-5.8-21,0-5.8,5.8-5.8,15.2,0,21,5.8,5.8,15.2,5.8,21,0,5.8-5.8,5.8-15.2,0-21Z"/>
        <path d="M271.71,253.02c-5.8-5.8-15.2-5.8-21,0-5.8,5.8-5.8,15.2,0,21,5.8,5.8,15.2,5.8,21,0,5.8-5.8,5.8-15.2,0-21Z"/>
        <path d="M300.99,223.75c-5.8-5.8-15.2-5.8-21,0-5.8,5.8-5.8,15.2,0,21,5.8,5.8,15.2,5.8,21,0,5.8-5.8,5.8-15.2,0-21Z"/>
        <circle cx="319.76" cy="204.97" r="14.85"/>
      </g>
      <g>
        <path d="M279.98,165.34c5.8-5.8,15.2-5.8,21,0,5.8,5.8,5.8,15.2,0,21-5.8,5.8-15.2,5.8-21,0-5.8-5.8-5.8-15.2,0-21Z"/>
        <path d="M250.71,136.06c5.8-5.8,15.2-5.8,21,0,5.8,5.8,5.8,15.2,0,21-5.8,5.8-15.2,5.8-21,0s-5.8-15.2,0-21Z"/>
        <path d="M221.43,106.79c5.8-5.8,15.2-5.8,21,0,5.8,5.8,5.8,15.2,0,21-5.8,5.8-15.2,5.8-21,0-5.8-5.8-5.8-15.2,0-21Z"/>
        <path d="M192.16,77.51c5.8-5.8,15.2-5.8,21,0,5.8,5.8,5.8,15.2,0,21-5.8,5.8-15.2,5.8-21,0-5.8-5.8-5.8-15.2,0-21Z"/>
        <path d="M162.88,48.23c5.8-5.8,15.2-5.8,21,0,5.8,5.8,5.8,15.2,0,21-5.8,5.8-15.2,5.8-21,0-5.8-5.8-5.8-15.2,0-21Z"/>
        <path d="M133.6,18.96c5.8-5.8,15.2-5.8,21,0,5.8,5.8,5.8,15.2,0,21-5.8,5.8-15.2,5.8-21,0-5.8-5.8-5.8-15.2,0-21Z"/>
      </g>
    </g>
    <g>
      <g>
        <path d="M69.52,370.13c-5.8-5.8-15.2-5.8-21,0-5.8,5.8-5.8,15.2,0,21,5.8,5.8,15.2,5.8,21,0,5.8-5.8,5.8-15.2,0-21Z"/>
        <path d="M98.8,340.85c-5.8-5.8-15.2-5.8-21,0-5.8,5.8-5.8,15.2,0,21,5.8,5.8,15.2,5.8,21,0,5.8-5.8,5.8-15.2,0-21Z"/>
        <path d="M128.07,311.57c-5.8-5.8-15.2-5.8-21,0-5.8,5.8-5.8,15.2,0,21,5.8,5.8,15.2,5.8,21,0,5.8-5.8,5.8-15.2,0-21Z"/>
        <path d="M157.35,282.3c-5.8-5.8-15.2-5.8-21,0-5.8,5.8-5.8,15.2,0,21,5.8,5.8,15.2,5.8,21,0,5.8-5.8,5.8-15.2,0-21Z"/>
        <path d="M186.63,253.02c-5.8-5.8-15.2-5.8-21,0-5.8,5.8-5.8,15.2,0,21,5.8,5.8,15.2,5.8,21,0,5.8-5.8,5.8-15.2,0-21Z"/>
        <path d="M215.9,223.75c-5.8-5.8-15.2-5.8-21,0-5.8,5.8-5.8,15.2,0,21,5.8,5.8,15.2,5.8,21,0,5.8-5.8,5.8-15.2,0-21Z"/>
        <path d="M245.18,194.47c-5.8-5.8-15.2-5.8-21,0-5.8,5.8-5.8,15.2,0,21,5.8,5.8,15.2,5.8,21,0,5.8-5.8,5.8-15.2,0-21Z"/>
      </g>
      <g>
        <path d="M194.9,165.34c5.8-5.8,15.2-5.8,21,0,5.8,5.8,5.8,15.2,0,21-5.8,5.8-15.2,5.8-21,0-5.8-5.8-5.8-15.2,0-21Z"/>
        <path d="M165.62,136.06c5.8-5.8,15.2-5.8,21,0,5.8,5.8,5.8,15.2,0,21-5.8,5.8-15.2,5.8-21,0-5.8-5.8-5.8-15.2,0-21Z"/>
        <path d="M136.35,106.79c5.8-5.8,15.2-5.8,21,0,5.8,5.8,5.8,15.2,0,21-5.8,5.8-15.2,5.8-21,0-5.8-5.8-5.8-15.2,0-21Z"/>
        <path d="M107.07,77.51c5.8-5.8,15.2-5.8,21,0,5.8,5.8,5.8,15.2,0,21-5.8,5.8-15.2,5.8-21,0-5.8-5.8-5.8-15.2,0-21Z"/>
        <path d="M77.8,48.23c5.8-5.8,15.2-5.8,21,0,5.8,5.8,5.8,15.2,0,21-5.8,5.8-15.2,5.8-21,0-5.8-5.8-5.8-15.2,0-21Z"/>
        <path d="M48.52,18.96c5.8-5.8,15.2-5.8,21,0,5.8,5.8,5.8,15.2,0,21-5.8,5.8-15.2,5.8-21,0-5.8-5.8-5.8-15.2,0-21Z"/>
      </g>
    </g>
  </g>
  <g>
    <g>
      <g>
        <circle class="st0" cx="144.11" cy="380.63" r="14.85"/>
        <path class="st0" d="M183.88,340.85c-5.8-5.8-15.2-5.8-21,0-5.8,5.8-5.8,15.2,0,21,5.8,5.8,15.2,5.8,21,0,5.8-5.8,5.8-15.2,0-21Z"/>
        <path class="st0" d="M213.16,311.57c-5.8-5.8-15.2-5.8-21,0-5.8,5.8-5.8,15.2,0,21,5.8,5.8,15.2,5.8,21,0,5.8-5.8,5.8-15.2,0-21Z"/>
        <path class="st0" d="M242.43,282.3c-5.8-5.8-15.2-5.8-21,0-5.8,5.8-5.8,15.2,0,21,5.8,5.8,15.2,5.8,21,0,5.8-5.8,5.8-15.2,0-21Z"/>
        <path class="st0" d="M271.71,253.02c-5.8-5.8-15.2-5.8-21,0-5.8,5.8-5.8,15.2,0,21,5.8,5.8,15.2,5.8,21,0,5.8-5.8,5.8-15.2,0-21Z"/>
        <path class="st0" d="M300.99,223.75c-5.8-5.8-15.2-5.8-21,0-5.8,5.8-5.8,15.2,0,21,5.8,5.8,15.2,5.8,21,0,5.8-5.8,5.8-15.2,0-21Z"/>
        <circle class="st0" cx="319.76" cy="204.97" r="14.85"/>
      </g>
      <g>
        <path class="st0" d="M279.98,165.34c5.8-5.8,15.2-5.8,21,0,5.8,5.8,5.8,15.2,0,21-5.8,5.8-15.2,5.8-21,0-5.8-5.8-5.8-15.2,0-21Z"/>
        <path class="st0" d="M250.71,136.06c5.8-5.8,15.2-5.8,21,0,5.8,5.8,5.8,15.2,0,21-5.8,5.8-15.2,5.8-21,0s-5.8-15.2,0-21Z"/>
        <path class="st0" d="M221.43,106.79c5.8-5.8,15.2-5.8,21,0,5.8,5.8,5.8,15.2,0,21-5.8,5.8-15.2,5.8-21,0-5.8-5.8-5.8-15.2,0-21Z"/>
        <path class="st0" d="M192.16,77.51c5.8-5.8,15.2-5.8,21,0,5.8,5.8,5.8,15.2,0,21-5.8,5.8-15.2,5.8-21,0-5.8-5.8-5.8-15.2,0-21Z"/>
        <path class="st0" d="M162.88,48.23c5.8-5.8,15.2-5.8,21,0,5.8,5.8,5.8,15.2,0,21-5.8,5.8-15.2,5.8-21,0-5.8-5.8-5.8-15.2,0-21Z"/>
        <path class="st0" d="M133.6,18.96c5.8-5.8,15.2-5.8,21,0,5.8,5.8,5.8,15.2,0,21-5.8,5.8-15.2,5.8-21,0-5.8-5.8-5.8-15.2,0-21Z"/>
      </g>
    </g>
    <g>
      <g>
        <path class="st0" d="M69.52,370.13c-5.8-5.8-15.2-5.8-21,0-5.8,5.8-5.8,15.2,0,21,5.8,5.8,15.2,5.8,21,0,5.8-5.8,5.8-15.2,0-21Z"/>
        <path class="st0" d="M98.8,340.85c-5.8-5.8-15.2-5.8-21,0-5.8,5.8-5.8,15.2,0,21,5.8,5.8,15.2,5.8,21,0,5.8-5.8,5.8-15.2,0-21Z"/>
        <path class="st0" d="M128.07,311.57c-5.8-5.8-15.2-5.8-21,0-5.8,5.8-5.8,15.2,0,21,5.8,5.8,15.2,5.8,21,0,5.8-5.8,5.8-15.2,0-21Z"/>
        <path class="st0" d="M157.35,282.3c-5.8-5.8-15.2-5.8-21,0-5.8,5.8-5.8,15.2,0,21,5.8,5.8,15.2,5.8,21,0,5.8-5.8,5.8-15.2,0-21Z"/>
        <path class="st0" d="M186.63,253.02c-5.8-5.8-15.2-5.8-21,0-5.8,5.8-5.8,15.2,0,21,5.8,5.8,15.2,5.8,21,0,5.8-5.8,5.8-15.2,0-21Z"/>
        <path class="st0" d="M215.9,223.75c-5.8-5.8-15.2-5.8-21,0-5.8,5.8-5.8,15.2,0,21,5.8,5.8,15.2,5.8,21,0,5.8-5.8,5.8-15.2,0-21Z"/>
        <path class="st0" d="M245.18,194.47c-5.8-5.8-15.2-5.8-21,0-5.8,5.8-5.8,15.2,0,21,5.8,5.8,15.2,5.8,21,0,5.8-5.8,5.8-15.2,0-21Z"/>
      </g>
      <g>
        <path class="st0" d="M194.9,165.34c5.8-5.8,15.2-5.8,21,0,5.8,5.8,5.8,15.2,0,21-5.8,5.8-15.2,5.8-21,0-5.8-5.8-5.8-15.2,0-21Z"/>
        <path class="st0" d="M165.62,136.06c5.8-5.8,15.2-5.8,21,0,5.8,5.8,5.8,15.2,0,21-5.8,5.8-15.2,5.8-21,0-5.8-5.8-5.8-15.2,0-21Z"/>
        <path class="st0" d="M136.35,106.79c5.8-5.8,15.2-5.8,21,0,5.8,5.8,5.8,15.2,0,21-5.8,5.8-15.2,5.8-21,0-5.8-5.8-5.8-15.2,0-21Z"/>
        <path class="st0" d="M107.07,77.51c5.8-5.8,15.2-5.8,21,0,5.8,5.8,5.8,15.2,0,21-5.8,5.8-15.2,5.8-21,0-5.8-5.8-5.8-15.2,0-21Z"/>
        <path class="st0" d="M77.8,48.23c5.8-5.8,15.2-5.8,21,0,5.8,5.8,5.8,15.2,0,21-5.8,5.8-15.2,5.8-21,0-5.8-5.8-5.8-15.2,0-21Z"/>
        <path class="st0" d="M48.52,18.96c5.8-5.8,15.2-5.8,21,0,5.8,5.8,5.8,15.2,0,21-5.8,5.8-15.2,5.8-21,0-5.8-5.8-5.8-15.2,0-21Z"/>
      </g>
    </g>
  </g>
</svg>