<?xml version="1.0" encoding="UTF-8"?>
<svg id="Layer_1" xmlns="http://www.w3.org/2000/svg" version="1.1" xmlns:xlink="http://www.w3.org/1999/xlink" viewBox="0 0 706.43 706.43">
  <!-- Generator: Adobe Illustrator 29.8.1, SVG Export Plug-In . SVG Version: 2.1.1 Build 2)  -->
  <defs>
    <style>
      .st0 {
        fill: none;
      }

      .st0, .st1, .st2 {
        stroke: #fff;
        stroke-linecap: round;
        stroke-miterlimit: 10;
        stroke-width: 14px;
      }

      .st1 {
        fill: #fff;
      }

      .st2 {
        fill: url(#linear-gradient);
      }
    </style>
    <linearGradient id="linear-gradient" x1="353.22" y1="599.24" x2="353.22" y2="-79.9" gradientTransform="translate(0 708) scale(1 -1)" gradientUnits="userSpaceOnUse">
      <stop offset="0" stop-color="#9d3adf"/>
      <stop offset=".21" stop-color="#8442d8"/>
      <stop offset=".64" stop-color="#4757c6"/>
      <stop offset="1" stop-color="#106ab6"/>
    </linearGradient>
  </defs>
  <g id="CUSTOM-group">
    <path class="st2" d="M540.51,237.4c-.37-31.79-16.64-49.3-45.82-49.3-11.29,0-22.17,2.63-29.28,4.82.71-13,.72-21.02.72-21.42v-5.56h-225.82v5.56c0,.19.02,8.34.74,21.42-7.11-2.19-18-4.83-29.3-4.83-29.17,0-45.44,17.51-45.82,49.3-.37,31.28,6.77,59.12,21.2,82.76,14.17,23.2,32.29,37.19,44.99,44.83,20.34,12.24,40.67,14.81,54.15,14.81,3.32,0,6.52-.16,9.52-.47.2-.02.38-.04.58-.07,6.51,7.02,13.54,12.64,21.04,16.81,5.53,3.08,9.38,8.45,10.7,14.62-7.46,2.32-12.89,9.29-12.89,17.5s5.68,15.49,13.4,17.65v23.35h-30.1v24.36h-29.71v46.95h168.85v-46.95h-29.71v-24.36h-30.1v-23.35c7.72-2.16,13.4-9.25,13.4-17.65s-5.43-15.18-12.89-17.5c1.32-6.17,5.17-11.54,10.7-14.62,7.49-4.17,14.56-9.82,21.06-16.81,2.3.26,5.76.53,10.07.53h0c13.47,0,33.8-2.57,54.14-14.81,12.7-7.64,30.82-21.62,44.99-44.83,14.44-23.63,21.57-51.48,21.2-82.75h0ZM454.91,177.06c-.05,2.03-.13,4.59-.25,7.59h-202.86c-.13-2.99-.21-5.55-.26-7.59h203.38-.01ZM462.48,228.14c7.54-2.51,17.31-5.04,26.06-5.04,7.34,0,12.62,1.79,15.7,5.33,3.54,4.06,4.68,10.89,3.39,20.29-5.38,39.16-22.36,69.73-47.82,86.08-8.87,5.69-18.42,8.05-26.42,8.88,16.93-35.58,25.12-80.22,29.08-115.54h.01ZM249.68,266.89c5.47,29.35,13.03,54.55,22.46,74.91.29.63.59,1.25.88,1.88-8-.84-17.54-3.19-26.41-8.88-25.45-16.35-42.44-46.91-47.82-86.08-1.29-9.4-.15-16.23,3.39-20.29,3.08-3.54,8.37-5.33,15.7-5.33,8.76,0,18.54,2.53,26.08,5.04,1.35,12.04,3.19,25.23,5.71,38.74h.01ZM286.26,368.67c-12.06,0-30.26-2.29-48.41-13.22-18.57-11.17-61.66-45.03-60.8-117.92.3-25.78,11.65-38.31,34.69-38.31,12.32,0,24.49,3.71,30.05,5.67.28,3.73.59,7.48.93,11.2-7.56-2.22-16.47-4.12-24.83-4.12-10.7,0-18.8,3.08-24.09,9.14-5.75,6.59-7.78,16.39-6.03,29.12,3,21.8,9.26,41.08,18.61,57.28,8.93,15.47,20.44,27.8,34.22,36.65,13.46,8.64,28.02,10.82,38.4,11.03.03.06.07.12.11.18.57,1,1.14,1.98,1.73,2.95.18.3.36.6.55.9.55.91,1.11,1.81,1.68,2.69.21.33.43.66.64.99.38.59.77,1.18,1.16,1.75.38.56.75,1.11,1.13,1.66.37.54.75,1.07,1.12,1.6.18.25.35.5.53.75-.45,0-.91.01-1.38.01h0ZM426.52,504.68v24.7h-146.6v-24.7h146.6ZM377.84,480.32h18.97v13.24h-87.19v-13.24h68.22ZM339.73,469.19v-22.67h26.99v22.67h-26.99ZM380.11,428.19c0,3.97-3.23,7.2-7.2,7.2h-39.38c-3.97,0-7.2-3.23-7.2-7.2s3.23-7.2,7.2-7.2h39.38c3.97,0,7.2,3.23,7.2,7.2ZM407.94,364.6c-.06.08-.12.16-.18.24-.55.71-1.1,1.4-1.65,2.08-.14.17-.27.34-.41.5-.61.74-1.22,1.46-1.84,2.17-.03.03-.06.07-.09.1-6.2,7.08-12.98,12.68-20.13,16.66-8.82,4.9-14.81,13.62-16.46,23.51h-27.91c-1.65-9.9-7.65-18.61-16.46-23.51-6.9-3.84-13.14-8.97-18.77-15.11l-1.36-1.55c-5.53-6.31-10.75-13.95-15.5-22.71l-1.46-2.69c-23.92-46.22-31.16-113.03-33.34-148.52h201.72c-.09,1.54-.19,3.14-.31,4.79,0,.08-.01.16-.02.23-.12,1.79-.25,3.59-.39,5.39,0,.05,0,.11-.01.16-.44,5.71-.97,11.43-1.57,17.1l-.36,3.42c-4.04,36.24-12.58,82.4-30.58,117.18l-1.59,2.93c-3.54,6.52-7.33,12.42-11.32,17.62h-.01ZM468.58,355.45c-18.15,10.93-36.34,13.22-48.41,13.22h0c-.47,0-.93,0-1.38-.01,0-.01.01-.02.02-.03.72-1,1.43-2.01,2.13-3.03.09-.13.17-.25.26-.38.59-.87,1.18-1.76,1.75-2.65.15-.23.3-.46.44-.69.64-1,1.27-2.01,1.89-3.04.1-.16.19-.32.29-.49.51-.85,1.01-1.7,1.5-2.57.12-.2.23-.4.35-.6,10.38-.21,24.94-2.39,38.4-11.03,13.78-8.85,25.29-21.18,34.22-36.65,9.35-16.2,15.61-35.47,18.61-57.28,1.75-12.73-.28-22.52-6.03-29.12-5.29-6.07-13.39-9.14-24.09-9.14-8.36,0-17.27,1.9-24.83,4.12.35-3.8.65-7.45.91-10.91,0-.1.02-.19.02-.29,5.56-1.96,17.73-5.67,30.05-5.67,23.04,0,34.39,12.53,34.69,38.31.85,72.89-42.24,106.75-60.8,117.92h0Z"/>
    <path class="st1" d="M540.51,237.4c-.37-31.79-16.64-49.3-45.82-49.3-11.29,0-22.17,2.63-29.28,4.82.71-13,.72-21.02.72-21.42v-5.56h-225.82v5.56c0,.19.02,8.34.74,21.42-7.11-2.19-18-4.83-29.3-4.83-29.17,0-45.44,17.51-45.82,49.3-.37,31.28,6.77,59.12,21.2,82.76,14.17,23.2,32.29,37.19,44.99,44.83,20.34,12.24,40.67,14.81,54.15,14.81,3.32,0,6.52-.16,9.52-.47.2-.02.38-.04.58-.07,6.51,7.02,13.54,12.64,21.04,16.81,5.53,3.08,9.38,8.45,10.7,14.62-7.46,2.32-12.89,9.29-12.89,17.5s5.68,15.49,13.4,17.65v23.35h-30.1v24.36h-29.71v46.95h168.85v-46.95h-29.71v-24.36h-30.1v-23.35c7.72-2.16,13.4-9.25,13.4-17.65s-5.43-15.18-12.89-17.5c1.32-6.17,5.17-11.54,10.7-14.62,7.49-4.17,14.56-9.82,21.06-16.81,2.3.26,5.76.53,10.07.53h0c13.47,0,33.8-2.57,54.14-14.81,12.7-7.64,30.82-21.62,44.99-44.83,14.44-23.63,21.57-51.48,21.2-82.75h0ZM454.91,177.06c-.05,2.03-.13,4.59-.25,7.59h-202.86c-.13-2.99-.21-5.55-.26-7.59h203.38-.01ZM462.48,228.14c7.54-2.51,17.31-5.04,26.06-5.04,7.34,0,12.62,1.79,15.7,5.33,3.54,4.06,4.68,10.89,3.39,20.29-5.38,39.16-22.36,69.73-47.82,86.08-8.87,5.69-18.42,8.05-26.42,8.88,16.93-35.58,25.12-80.22,29.08-115.54h.01ZM249.68,266.89c5.47,29.35,13.03,54.55,22.46,74.91.29.63.59,1.25.88,1.88-8-.84-17.54-3.19-26.41-8.88-25.45-16.35-42.44-46.91-47.82-86.08-1.29-9.4-.15-16.23,3.39-20.29,3.08-3.54,8.37-5.33,15.7-5.33,8.76,0,18.54,2.53,26.08,5.04,1.35,12.04,3.19,25.23,5.71,38.74h.01ZM286.26,368.67c-12.06,0-30.26-2.29-48.41-13.22-18.57-11.17-61.66-45.03-60.8-117.92.3-25.78,11.65-38.31,34.69-38.31,12.32,0,24.49,3.71,30.05,5.67.28,3.73.59,7.48.93,11.2-7.56-2.22-16.47-4.12-24.83-4.12-10.7,0-18.8,3.08-24.09,9.14-5.75,6.59-7.78,16.39-6.03,29.12,3,21.8,9.26,41.08,18.61,57.28,8.93,15.47,20.44,27.8,34.22,36.65,13.46,8.64,28.02,10.82,38.4,11.03.03.06.07.12.11.18.57,1,1.14,1.98,1.73,2.95.18.3.36.6.55.9.55.91,1.11,1.81,1.68,2.69.21.33.43.66.64.99.38.59.77,1.18,1.16,1.75.38.56.75,1.11,1.13,1.66.37.54.75,1.07,1.12,1.6.18.25.35.5.53.75-.45,0-.91.01-1.38.01h0ZM426.52,504.68v24.7h-146.6v-24.7h146.6ZM377.84,480.32h18.97v13.24h-87.19v-13.24h68.22ZM339.73,469.19v-22.67h26.99v22.67h-26.99ZM380.11,428.19c0,3.97-3.23,7.2-7.2,7.2h-39.38c-3.97,0-7.2-3.23-7.2-7.2s3.23-7.2,7.2-7.2h39.38c3.97,0,7.2,3.23,7.2,7.2ZM407.94,364.6c-.06.08-.12.16-.18.24-.55.71-1.1,1.4-1.65,2.08-.14.17-.27.34-.41.5-.61.74-1.22,1.46-1.84,2.17-.03.03-.06.07-.09.1-6.2,7.08-12.98,12.68-20.13,16.66-8.82,4.9-14.81,13.62-16.46,23.51h-27.91c-1.65-9.9-7.65-18.61-16.46-23.51-6.9-3.84-13.14-8.97-18.77-15.11l-1.36-1.55c-5.53-6.31-10.75-13.95-15.5-22.71l-1.46-2.69c-23.92-46.22-31.16-113.03-33.34-148.52h201.72c-.09,1.54-.19,3.14-.31,4.79,0,.08-.01.16-.02.23-.12,1.79-.25,3.59-.39,5.39,0,.05,0,.11-.01.16-.44,5.71-.97,11.43-1.57,17.1l-.36,3.42c-4.04,36.24-12.58,82.4-30.58,117.18l-1.59,2.93c-3.54,6.52-7.33,12.42-11.32,17.62h-.01ZM468.58,355.45c-18.15,10.93-36.34,13.22-48.41,13.22h0c-.47,0-.93,0-1.38-.01,0-.01.01-.02.02-.03.72-1,1.43-2.01,2.13-3.03.09-.13.17-.25.26-.38.59-.87,1.18-1.76,1.75-2.65.15-.23.3-.46.44-.69.64-1,1.27-2.01,1.89-3.04.1-.16.19-.32.29-.49.51-.85,1.01-1.7,1.5-2.57.12-.2.23-.4.35-.6,10.38-.21,24.94-2.39,38.4-11.03,13.78-8.85,25.29-21.18,34.22-36.65,9.35-16.2,15.61-35.47,18.61-57.28,1.75-12.73-.28-22.52-6.03-29.12-5.29-6.07-13.39-9.14-24.09-9.14-8.36,0-17.27,1.9-24.83,4.12.35-3.8.65-7.45.91-10.91,0-.1.02-.19.02-.29,5.56-1.96,17.73-5.67,30.05-5.67,23.04,0,34.39,12.53,34.69,38.31.85,72.89-42.24,106.75-60.8,117.92h0Z"/>
    <path class="st0" d="M540.51,237.4c-.37-31.79-16.64-49.3-45.82-49.3-11.29,0-22.17,2.63-29.28,4.82.71-13,.72-21.02.72-21.42v-5.56h-225.82v5.56c0,.19.02,8.34.74,21.42-7.11-2.19-18-4.83-29.3-4.83-29.17,0-45.44,17.51-45.82,49.3-.37,31.28,6.77,59.12,21.2,82.76,14.17,23.2,32.29,37.19,44.99,44.83,20.34,12.24,40.67,14.81,54.15,14.81,3.32,0,6.52-.16,9.52-.47.2-.02.38-.04.58-.07,6.51,7.02,13.54,12.64,21.04,16.81,5.53,3.08,9.38,8.45,10.7,14.62-7.46,2.32-12.89,9.29-12.89,17.5s5.68,15.49,13.4,17.65v23.35h-30.1v24.36h-29.71v46.95h168.85v-46.95h-29.71v-24.36h-30.1v-23.35c7.72-2.16,13.4-9.25,13.4-17.65s-5.43-15.18-12.89-17.5c1.32-6.17,5.17-11.54,10.7-14.62,7.49-4.17,14.56-9.82,21.06-16.81,2.3.26,5.76.53,10.07.53h0c13.47,0,33.8-2.57,54.14-14.81,12.7-7.64,30.82-21.62,44.99-44.83,14.44-23.63,21.57-51.48,21.2-82.75h0ZM454.91,177.06c-.05,2.03-.13,4.59-.25,7.59h-202.86c-.13-2.99-.21-5.55-.26-7.59h203.38-.01ZM462.48,228.14c7.54-2.51,17.31-5.04,26.06-5.04,7.34,0,12.62,1.79,15.7,5.33,3.54,4.06,4.68,10.89,3.39,20.29-5.38,39.16-22.36,69.73-47.82,86.08-8.87,5.69-18.42,8.05-26.42,8.88,16.93-35.58,25.12-80.22,29.08-115.54h.01ZM249.68,266.89c5.47,29.35,13.03,54.55,22.46,74.91.29.63.59,1.25.88,1.88-8-.84-17.54-3.19-26.41-8.88-25.45-16.35-42.44-46.91-47.82-86.08-1.29-9.4-.15-16.23,3.39-20.29,3.08-3.54,8.37-5.33,15.7-5.33,8.76,0,18.54,2.53,26.08,5.04,1.35,12.04,3.19,25.23,5.71,38.74h.01ZM286.26,368.67c-12.06,0-30.26-2.29-48.41-13.22-18.57-11.17-61.66-45.03-60.8-117.92.3-25.78,11.65-38.31,34.69-38.31,12.32,0,24.49,3.71,30.05,5.67.28,3.73.59,7.48.93,11.2-7.56-2.22-16.47-4.12-24.83-4.12-10.7,0-18.8,3.08-24.09,9.14-5.75,6.59-7.78,16.39-6.03,29.12,3,21.8,9.26,41.08,18.61,57.28,8.93,15.47,20.44,27.8,34.22,36.65,13.46,8.64,28.02,10.82,38.4,11.03.03.06.07.12.11.18.57,1,1.14,1.98,1.73,2.95.18.3.36.6.55.9.55.91,1.11,1.81,1.68,2.69.21.33.43.66.64.99.38.59.77,1.18,1.16,1.75.38.56.75,1.11,1.13,1.66.37.54.75,1.07,1.12,1.6.18.25.35.5.53.75-.45,0-.91.01-1.38.01h0ZM426.52,504.68v24.7h-146.6v-24.7h146.6ZM377.84,480.32h18.97v13.24h-87.19v-13.24h68.22ZM339.73,469.19v-22.67h26.99v22.67h-26.99ZM380.11,428.19c0,3.97-3.23,7.2-7.2,7.2h-39.38c-3.97,0-7.2-3.23-7.2-7.2s3.23-7.2,7.2-7.2h39.38c3.97,0,7.2,3.23,7.2,7.2ZM407.94,364.6c-.06.08-.12.16-.18.24-.55.71-1.1,1.4-1.65,2.08-.14.17-.27.34-.41.5-.61.74-1.22,1.46-1.84,2.17-.03.03-.06.07-.09.1-6.2,7.08-12.98,12.68-20.13,16.66-8.82,4.9-14.81,13.62-16.46,23.51h-27.91c-1.65-9.9-7.65-18.61-16.46-23.51-6.9-3.84-13.14-8.97-18.77-15.11l-1.36-1.55c-5.53-6.31-10.75-13.95-15.5-22.71l-1.46-2.69c-23.92-46.22-31.16-113.03-33.34-148.52h201.72c-.09,1.54-.19,3.14-.31,4.79,0,.08-.01.16-.02.23-.12,1.79-.25,3.59-.39,5.39,0,.05,0,.11-.01.16-.44,5.71-.97,11.43-1.57,17.1l-.36,3.42c-4.04,36.24-12.58,82.4-30.58,117.18l-1.59,2.93c-3.54,6.52-7.33,12.42-11.32,17.62h-.01ZM468.58,355.45c-18.15,10.93-36.34,13.22-48.41,13.22h0c-.47,0-.93,0-1.38-.01,0-.01.01-.02.02-.03.72-1,1.43-2.01,2.13-3.03.09-.13.17-.25.26-.38.59-.87,1.18-1.76,1.75-2.65.15-.23.3-.46.44-.69.64-1,1.27-2.01,1.89-3.04.1-.16.19-.32.29-.49.51-.85,1.01-1.7,1.5-2.57.12-.2.23-.4.35-.6,10.38-.21,24.94-2.39,38.4-11.03,13.78-8.85,25.29-21.18,34.22-36.65,9.35-16.2,15.61-35.47,18.61-57.28,1.75-12.73-.28-22.52-6.03-29.12-5.29-6.07-13.39-9.14-24.09-9.14-8.36,0-17.27,1.9-24.83,4.12.35-3.8.65-7.45.91-10.91,0-.1.02-.19.02-.29,5.56-1.96,17.73-5.67,30.05-5.67,23.04,0,34.39,12.53,34.69,38.31.85,72.89-42.24,106.75-60.8,117.92h0Z"/>
  </g>
</svg>