<?xml version="1.0" encoding="UTF-8"?>
<svg id="Layer_1" xmlns="http://www.w3.org/2000/svg" version="1.1" viewBox="0 0 706.43 706.43">
  <!-- Generator: Adobe Illustrator 29.7.0, SVG Export Plug-In . SVG Version: 2.1.1 Build 138)  -->
  <defs>
    <style>
      .st0 {
        fill: #fff;
      }

      .st1 {
        fill: #92e02d;
      }
    </style>
  </defs>
  <g>
    <path d="M139.32,114.85s-.05.09-.07.13c.03-.04.06-.09.09-.14,0,0-.02,0-.03,0Z"/>
    <path d="M139.33,114.82s.02-.01.03-.02c0-.01,0-.03,0-.04,0,0,0,0,0,0,0,0,0,0,0,.01,0,.02-.02.03-.02.04Z"/>
    <path d="M139.21,114.88s-.02.02-.03.04c.03-.02.06-.03.08-.05-.02,0-.04,0-.05.01Z"/>
    <path d="M139.26,114.87s.04,0,.05-.01c0,0,0-.02.02-.03-.02.01-.04.03-.07.04Z"/>
    <path class="st1" d="M139.67,114.17s0-.05.03-.07c-.02,0-.03-.01-.05-.02-.02.02-.03.06-.02.08.01,0,.02,0,.04,0Z"/>
    <path class="st1" d="M139.73,114.25s.02-.04.04-.05c-.01-.01-.02-.02-.03-.03-.02.01-.04.04-.04.06,0,0,.02.01.03.02Z"/>
    <path class="st1" d="M139.85,114.44s.06-.06.1-.06c-.01-.02-.03-.05-.04-.07-.05,0-.1.05-.1.09.01.02.03.03.04.05Z"/>
    <path class="st1" d="M139.38,113.86s-.03-.08,0-.12c-.03,0-.06,0-.09,0-.02.05,0,.12.03.14.02,0,.04-.01.06-.02Z"/>
    <g>
      <path d="M498.01,358.41l45.29-44.14c5.26-5.13,7.12-12.65,4.85-19.64-2.27-6.99-8.2-11.99-15.47-13.05l-126-18.31-56.35-114.18c-3.25-6.59-9.84-10.68-17.19-10.68h0c-7.35,0-13.93,4.1-17.18,10.68l-56.35,114.18-126,18.31c-7.27,1.06-13.2,6.06-15.47,13.05-2.27,6.99-.41,14.52,4.85,19.64l91.17,88.87-21.53,125.5c-1.24,7.24,1.68,14.42,7.63,18.74,3.36,2.44,7.29,3.68,11.25,3.68,3.05,0,6.11-.73,8.94-2.22l112.7-59.25,37.59,19.76c16.21,42.54,57.42,72.85,105.59,72.85,62.28,0,112.95-50.67,112.95-112.95,0-54.86-39.32-100.71-91.26-110.85ZM336.86,473.49c-2.33-1.22-5.11-1.23-7.44,0l-116.42,61.2c-1.52.8-2.75.19-3.35-.24-.6-.43-1.56-1.42-1.27-3.11l22.24-129.63c.44-2.59-.41-5.24-2.3-7.07l-94.18-91.81c-1.23-1.2-1.03-2.56-.8-3.26.23-.7.87-1.92,2.57-2.17l130.16-18.91c2.6-.38,4.85-2.01,6.02-4.37l58.21-117.95c.76-1.54,2.11-1.77,2.85-1.77.74,0,2.1.23,2.86,1.77l58.21,117.94c1.16,2.36,3.41,3.99,6.02,4.37l130.16,18.91c1.7.25,2.34,1.46,2.57,2.17.23.7.43,2.06-.81,3.26l-54.89,53.5c-.31,0-.62-.01-.93-.01-62.28,0-112.95,50.67-112.95,112.95,0,6.48.56,12.83,1.61,19.01l-28.12-14.79ZM476.32,566.23c-53.47,0-96.96-43.5-96.96-96.96s43.5-96.96,96.96-96.96,96.96,43.5,96.96,96.96-43.5,96.96-96.96,96.96Z"/>
      <path d="M519.69,427.47c-3.53-2.65-8.54-1.93-11.19,1.6l-52.19,69.58-19.63-19.63c-3.12-3.12-8.18-3.12-11.3,0-3.12,3.12-3.12,8.18,0,11.3l26.14,26.14c1.5,1.5,3.54,2.34,5.65,2.34.19,0,.38,0,.57-.02,2.31-.16,4.44-1.32,5.83-3.18l57.71-76.95c2.65-3.53,1.93-8.54-1.6-11.19Z"/>
    </g>
  </g>
  <g>
    <path class="st0" d="M139.32,114.85s-.05.09-.07.13c.03-.04.06-.09.09-.14,0,0-.02,0-.03,0Z"/>
    <path class="st0" d="M139.33,114.82s.02-.01.03-.02c0-.01,0-.03,0-.04,0,0,0,0,0,0,0,0,0,0,0,.01,0,.02-.02.03-.02.04Z"/>
    <path class="st0" d="M139.21,114.88s-.02.02-.03.04c.03-.02.06-.03.08-.05-.02,0-.04,0-.05.01Z"/>
    <path class="st0" d="M139.26,114.87s.04,0,.05-.01c0,0,0-.02.02-.03-.02.01-.04.03-.07.04Z"/>
    <path class="st1" d="M139.67,114.17s0-.05.03-.07c-.02,0-.03-.01-.05-.02-.02.02-.03.06-.02.08.01,0,.02,0,.04,0Z"/>
    <path class="st1" d="M139.73,114.25s.02-.04.04-.05c-.01-.01-.02-.02-.03-.03-.02.01-.04.04-.04.06,0,0,.02.01.03.02Z"/>
    <path class="st1" d="M139.85,114.44s.06-.06.1-.06c-.01-.02-.03-.05-.04-.07-.05,0-.1.05-.1.09.01.02.03.03.04.05Z"/>
    <path class="st1" d="M139.38,113.86s-.03-.08,0-.12c-.03,0-.06,0-.09,0-.02.05,0,.12.03.14.02,0,.04-.01.06-.02Z"/>
    <g>
      <path class="st0" d="M498.01,358.41l45.29-44.14c5.26-5.13,7.12-12.65,4.85-19.64-2.27-6.99-8.2-11.99-15.47-13.05l-126-18.31-56.35-114.18c-3.25-6.59-9.84-10.68-17.19-10.68h0c-7.35,0-13.93,4.1-17.18,10.68l-56.35,114.18-126,18.31c-7.27,1.06-13.2,6.06-15.47,13.05-2.27,6.99-.41,14.52,4.85,19.64l91.17,88.87-21.53,125.5c-1.24,7.24,1.68,14.42,7.63,18.74,3.36,2.44,7.29,3.68,11.25,3.68,3.05,0,6.11-.73,8.94-2.22l112.7-59.25,37.59,19.76c16.21,42.54,57.42,72.85,105.59,72.85,62.28,0,112.95-50.67,112.95-112.95,0-54.86-39.32-100.71-91.26-110.85ZM336.86,473.49c-2.33-1.22-5.11-1.23-7.44,0l-116.42,61.2c-1.52.8-2.75.19-3.35-.24-.6-.43-1.56-1.42-1.27-3.11l22.24-129.63c.44-2.59-.41-5.24-2.3-7.07l-94.18-91.81c-1.23-1.2-1.03-2.56-.8-3.26.23-.7.87-1.92,2.57-2.17l130.16-18.91c2.6-.38,4.85-2.01,6.02-4.37l58.21-117.95c.76-1.54,2.11-1.77,2.85-1.77.74,0,2.1.23,2.86,1.77l58.21,117.94c1.16,2.36,3.41,3.99,6.02,4.37l130.16,18.91c1.7.25,2.34,1.46,2.57,2.17.23.7.43,2.06-.81,3.26l-54.89,53.5c-.31,0-.62-.01-.93-.01-62.28,0-112.95,50.67-112.95,112.95,0,6.48.56,12.83,1.61,19.01l-28.12-14.79ZM476.32,566.23c-53.47,0-96.96-43.5-96.96-96.96s43.5-96.96,96.96-96.96,96.96,43.5,96.96,96.96-43.5,96.96-96.96,96.96Z"/>
      <path class="st0" d="M519.69,427.47c-3.53-2.65-8.54-1.93-11.19,1.6l-52.19,69.58-19.63-19.63c-3.12-3.12-8.18-3.12-11.3,0-3.12,3.12-3.12,8.18,0,11.3l26.14,26.14c1.5,1.5,3.54,2.34,5.65,2.34.19,0,.38,0,.57-.02,2.31-.16,4.44-1.32,5.83-3.18l57.71-76.95c2.65-3.53,1.93-8.54-1.6-11.19Z"/>
    </g>
  </g>
  <g>
    <path class="st0" d="M476.32,592.7c-49.53,0-94.78-30.32-113.88-75.85l-29.3-15.4-107.82,56.68c-9.91,5.19-22.22,4.28-31.22-2.26-9.2-6.69-13.72-17.79-11.8-28.99l20.6-120.07-87.23-85.03c-8.14-7.93-11.02-19.57-7.51-30.39,3.51-10.81,12.68-18.54,23.93-20.18l120.55-17.52,53.91-109.23c5.03-10.19,15.21-16.52,26.57-16.53,11.38,0,21.57,6.33,26.6,16.52l53.91,109.24,120.55,17.52c11.26,1.64,20.42,9.38,23.94,20.19,3.51,10.81.63,22.45-7.51,30.39l-32.25,31.42c48.11,17.44,81.38,63.59,81.38,116.06,0,68.06-55.37,123.43-123.43,123.43ZM476.32,382.78c-47.69,0-86.48,38.79-86.48,86.48s38.79,86.48,86.48,86.48,86.48-38.79,86.48-86.48-38.8-86.48-86.48-86.48ZM152.05,305.64l83.59,81.48c4.36,4.25,6.34,10.37,5.31,16.36l-19.74,115.05,103.33-54.32c5.37-2.83,11.8-2.84,17.19,0h0l11.15,5.87c0-.27,0-.54,0-.81,0-66.93,53.55-121.59,120.06-123.38l41.28-40.24-115.52-16.78c-6.01-.87-11.22-4.65-13.92-10.11l-51.66-104.68-51.67,104.68c-2.7,5.47-7.9,9.24-13.93,10.11l-115.5,16.78ZM524.82,295.31s-.01.02-.02.02l.02-.02Z"/>
    <path class="st0" d="M457.17,529.3c-4.93,0-9.56-1.92-13.06-5.41l-26.15-26.15c-7.2-7.2-7.2-18.92,0-26.13,6.98-6.98,19.15-6.98,26.13,0l11.08,11.08,44.93-59.91c6.12-8.14,17.71-9.8,25.86-3.7h0c3.95,2.96,6.51,7.28,7.21,12.17.7,4.89-.55,9.75-3.51,13.7l-57.71,76.95c-3.22,4.29-8.13,6.97-13.47,7.35-.37.03-.84.05-1.31.05Z"/>
  </g>
</svg>