<?xml version="1.0" encoding="UTF-8"?>
<svg id="Layer_1" xmlns="http://www.w3.org/2000/svg" version="1.1" viewBox="0 0 706.43 706.43">
  <!-- Generator: Adobe Illustrator 29.7.0, SVG Export Plug-In . SVG Version: 2.1.1 Build 138)  -->
  <defs>
    <style>
      .st0 {
        fill: #fff;
      }
    </style>
  </defs>
  <path class="st0" d="M71.6,328.77c-1.65,0-3.3-.21-4.94-.62-4.53,17.3-6.59,31.31-5.77,39.96,5.77,2.68,15.66,2.68,21.42,0,.62-8.65-1.24-22.66-5.77-39.96-1.65.21-3.3.62-4.94.62Z"/>
  <path class="st0" d="M71.6,315.38c2.06,0,3.71-.62,5.15-1.85v-.21c1.65-1.44,2.88-3.71,2.88-6.18,0-4.53-3.5-8.03-8.03-8.03s-8.03,3.71-8.03,8.03c0,2.47,1.24,4.74,2.88,6.18v.21c1.44,1.24,3.09,1.85,5.15,1.85Z"/>
  <path class="st0" d="M490.22,358.35c0-32.83-10.55-63.23-28.4-88.05l183.9-49.04-284.73-102.82L64.76,201.49l.76.3-.92.29v84.46c2.27-.62,4.33-1.03,6.8-1.03s4.74.41,6.8,1.03v-79.77l143.37,56.42c-21.11,26.01-33.8,59.12-33.8,95.15,0,64.92,41.13,120.41,98.7,141.8-12.68,2.31-25.19,5.41-37.48,9.34-72.21,23.07-111.82,65.57-113.47,67.37l12.14,11.14c.37-.41,38.26-41.06,106.35-62.81,90.48-28.91,192.54-10.75,295.14,52.52l8.65-14.03c-55.47-34.21-110.67-55.81-164.27-64.32,56.51-21.93,96.69-76.85,96.69-141.01ZM204.25,358.35c0-33.99,12.67-65.05,33.51-88.78l91.6,36.05,115.29-30.75c18.19,22.97,29.09,51.97,29.09,83.47,0,74.3-60.45,134.74-134.75,134.74s-134.75-60.45-134.75-134.74Z"/>
</svg>