<?xml version="1.0" encoding="UTF-8"?>
<svg id="Layer_1" xmlns="http://www.w3.org/2000/svg" version="1.1" viewBox="0 0 706.43 706.43">
  <!-- Generator: Adobe Illustrator 29.7.0, SVG Export Plug-In . SVG Version: 2.1.1 Build 138)  -->
  <defs>
    <style>
      .st0 {
        fill: #fff;
      }
    </style>
  </defs>
  <path class="st0" d="M248.29,118.34l204.64-.47c20.33,3.02,34.36,17.33,36.21,38.02l-.07,394.66c-3.5,19.55-15.42,34.37-36.06,36.21-64.62,5.76-137.71-4.47-203.23-.07-14.91-1.3-25.05-13.2-30.7-25.95-3.54-135.86-.52-272.53-1.53-408.69,2.19-17.09,14.06-29.89,30.75-33.71ZM406.05,145.22h-107.43c-2.22,0-4.19,7.41-2.74,9.59,1.03,1.56,9.84,2.07,12.42,2.22,22.32,1.29,73.25,2.98,93.72-.22,9.68-1.51,11.44-9.52,4.03-11.6ZM461.17,517.75c3.52-3.03,6.55-13.08,6.48-17.91-6.18-94.79,7.97-199.53,0-293.15-.84-9.87-3.31-21-14.61-22.5-63.59,4.57-134.83-5.72-197.49.01-12.76,1.17-17.99,7.86-18.54,20.53v295.11c-.09,13.2,9.3,22.56,22.46,22.46,60.12-3.96,126.35,5.01,185.72,0,4.37-.37,12.79-1.81,15.97-4.56ZM375.29,550.04c-3.98-3.84-40.32-3.65-45.25-.31-5.18,3.5-2.55,11.6,2.1,13.19,3.46,1.18,39.36.77,41.69-.63,3.48-2.09,4.58-9.24,1.46-12.25Z"/>
</svg>