<?xml version="1.0" encoding="UTF-8"?>
<svg id="Layer_1" xmlns="http://www.w3.org/2000/svg" version="1.1" viewBox="0 0 706.43 706.43">
  <!-- Generator: Adobe Illustrator 29.7.0, SVG Export Plug-In . SVG Version: 2.1.1 Build 138)  -->
  <defs>
    <style>
      .st0 {
        fill: #fff;
        fill-rule: evenodd;
      }
    </style>
  </defs>
  <path class="st0" d="M545.09,200.05c2.39,3.3,4.79,6.61,7.18,9.91,2.39,3.3,4.79,6.61,7.18,9.91,1.82,2.52.37,6.79-3.23,9.48-75.86,56.67-151.66,113.32-227.47,169.96-75.81,56.64-151.61,113.28-227.42,169.93-3.6,2.69-8.72,1.81-11.41-1.91-3.54-4.88-7.08-9.77-10.61-14.65-3.53-4.88-7.07-9.76-10.61-14.64-2.7-3.72-1.94-8.85,1.74-11.43,77.43-54.39,154.86-108.8,232.29-163.19,77.43-54.4,154.87-108.79,232.35-163.22,3.68-2.59,8.18-2.65,10-.13h0ZM496,309.31c-6.67,5.52-6.49,6.38-3.37,14.52-5.52-6.67-6.38-6.49-14.52-3.37,6.67-5.52,6.49-6.38,3.37-14.53,5.52,6.67,6.38,6.49,14.52,3.37h0ZM483.04,147.21c-10.39,6.45-10.29,7.69-7.48,19.68-6.45-10.39-7.69-10.29-19.68-7.48,10.39-6.45,10.29-7.69,7.48-19.68,6.45,10.39,7.69,10.29,19.68,7.48h0ZM540.28,147.12c-15,8.67-14.92,10.43-11.47,27.53-8.67-15-10.43-14.92-27.53-11.47,15-8.67,14.92-10.43,11.46-27.53,8.67,15,10.43,14.92,27.53,11.47h0ZM639.35,170.76c-25.06,3.36-25.93,5.78-30.78,30.78-3.36-25.06-5.78-25.93-30.78-30.78,25.06-3.36,25.93-5.78,30.78-30.78,3.36,25.06,5.78,25.93,30.78,30.78h0ZM602.54,257.25c-13.61,11.09-13.24,12.83-7.04,29.38-11.09-13.61-12.83-13.24-29.38-7.04,13.61-11.09,13.24-12.83,7.04-29.38,11.09,13.61,12.83,13.24,29.38,7.04h0ZM461.28,196.24c-17.27,12.58-16.94,14.72-10.5,35.25-12.58-17.27-14.72-16.94-35.25-10.5,17.27-12.58,16.94-14.72,10.5-35.25,12.58,17.27,14.72,16.94,35.25,10.5h0ZM555.08,316.28c-11.42,8.16-11.22,9.57-7.11,23.09-8.16-11.42-9.57-11.22-23.09-7.11,11.42-8.16,11.22-9.57,7.11-23.09,8.16,11.42,9.57,11.22,23.09,7.11h0ZM540.22,208.47c1.62,2.23,3.24,4.47,4.86,6.7,1.62,2.23,3.24,4.47,4.86,6.71.77,1.07.34,2.76-.96,3.75-8.17,6.22-16.34,12.44-24.51,18.66-8.16,6.21-16.34,12.44-24.5,18.65-1.3.99-3.09.8-3.98-.43-1.86-2.57-3.72-5.14-5.58-7.7-1.86-2.57-3.72-5.14-5.58-7.7-.89-1.23-.52-2.99.83-3.92,8.45-5.82,16.91-11.65,25.35-17.48,8.45-5.82,16.91-11.65,25.36-17.48,1.35-.93,3.09-.82,3.86.25h0Z"/>
</svg>