<?xml version="1.0" encoding="UTF-8"?>
<svg id="Layer_1" xmlns="http://www.w3.org/2000/svg" version="1.1" viewBox="0 0 706.43 706.43">
  <!-- Generator: Adobe Illustrator 29.7.0, SVG Export Plug-In . SVG Version: 2.1.1 Build 138)  -->
  <defs>
    <style>
      .st0 {
        fill: #fff;
        stroke: #fff;
        stroke-miterlimit: 10;
        stroke-width: 2px;
      }
    </style>
  </defs>
  <path class="st0" d="M296.46,223.7c5.08.13,12.36-1.3,19.42-4.02,4.32-1.67,8.68-3.22,13.34-3.71,1.34-.14,2.64-.21,3.98,0,2.42.38,4.84.22,7.1-.72,14.89-6.23,29.61-4.18,43.91,1.61,9.04,3.66,18.12,6.66,27.84,6.57,11.69-.12,23.04-2.23,33.04-8.91,3.16-2.11,3.19-2.42.89-5.33-2.71-3.42-5.61-6.69-8.2-10.19-2.73-3.69-2.43-5.2,1.33-7.94,16.67-12.2,33.38-24.36,50.07-36.54,3.02-2.2,5.83-4.69,9.11-6.54,3.7-2.09,4.27-2.06,6.86,1.29,5.45,7.05,10.79,14.17,16.23,21.23,28.04,36.41,56.1,72.81,84.17,109.2,4.02,5.22,8.44,10.13,12.11,15.62,1.94,2.91,2.02,3.63-.76,5.81-7.43,5.82-14.99,11.47-22.52,17.17-12.07,9.14-24.11,18.31-36.24,27.37-3.8,2.84-4.75,2.71-7.76-.94-3.28-3.98-6.36-8.14-9.37-12.33-1.2-1.68-1.91-2.06-3.59-.44-7.97,7.73-13.42,16.57-14.72,27.95-1.63,14.27-8.24,26.56-16.57,38.02-4.88,6.71-10.06,13.17-15.56,19.36-1.63,1.83-1.86,2.95.22,4.66,4.82,3.98,8.49,8.84,10.24,14.99,1.95,6.86,1.16,13.28-3.27,18.97-4.72,6.05-10.3,11.06-17.73,13.65-2.15.75-4.37.87-6.58.98-1.38.07-1.8.45-1.87,1.84-.71,14.35-12.38,26.9-26.71,28.8-.35.05-.71.08-1.06.09-4.16.2-4.19.19-4.24,4.28-.04,2.94-.89,5.63-2.38,8.1-3.84,6.38-9.05,11.42-15.36,15.33-4.07,2.53-8.59,2.72-13.18,2.06-1.37-.19-2.39-.25-2.16,1.55.72,5.81-1.59,10.6-5,15.03-2.85,3.7-6.15,6.94-10.16,9.36-8.12,4.9-17.01,3.9-23.71-2.8-4.97-4.98-9.85-10.05-14.63-15.21-1.69-1.82-2.85-1.83-4.49-.01-1.9,2.11-3.89,4.21-6.13,5.93-7.14,5.49-15.16,6.78-23.4,3.25-8.92-3.81-14.01-10.96-15.47-20.6-.11-.7-.17-1.41-.22-2.12-.12-1.77-.89-2.18-2.65-1.71-15.88,4.24-29.26-8.56-31.31-21.88-.23-1.49-.52-3-.5-4.5.02-1.98-.68-2.28-2.59-2.04-12.42,1.56-24-5.68-28.08-17.46-1.15-3.31-1.76-6.72-1.11-10.24.29-1.59-.27-2.03-1.88-1.87-15.97,1.63-29.88-11.23-29.49-27.21.12-4.67,2.05-8.63,4.97-12.12,1.77-2.11,3.64-4.16,5.67-6.03,1.51-1.39,1.33-2.16-.04-3.59-10.09-10.53-19.1-21.86-25.19-35.26-3.41-7.5-5.96-15.25-6.81-23.49-.65-6.31-3.09-11.85-7.19-16.65-2.54-2.98-5.11-5.94-7.74-8.85-2.21-2.44-2.31-2.44-4.41.27-3.1,4.02-6.09,8.12-9.2,12.13-2.82,3.63-3.63,3.72-7.47,1.14-8.51-5.72-16.28-12.42-24.49-18.55-10.71-7.99-21.11-16.38-31.97-24.16-5.46-3.91-5.63-4.87-1.51-10.22,14.93-19.41,30.01-38.71,44.98-58.09,21.51-27.84,43.41-55.37,64.53-83.51,4.89-6.51,5.12-6.51,11.48-1.66,18.13,13.83,36.52,27.31,55.06,40.57.72.52,1.45,1.04,2.11,1.64,2.16,1.95,2.38,3.37.83,5.86-2.84,4.55-6.37,8.58-9.88,12.6-1.56,1.78-1.08,2.56.62,3.63,10.39,6.53,21.76,9.54,36.48,9.55ZM328.86,223.31c-1.61.43-3.23.82-4.81,1.31-5.35,1.67-10.5,4.02-16.01,5.14-18.88,3.83-36.42.07-52.79-9.71-1.77-1.05-2.55-.96-3.82.67-26.24,33.64-52.35,67.39-78.3,101.26-1.19,1.56-1.06,2.45.19,3.82,3.49,3.81,6.92,7.67,10.18,11.68,3.69,4.56,6.37,9.64,7.04,15.61,1.51,13.35,6.24,25.52,13.5,36.77,4.95,7.67,10.8,14.59,17.19,21.08,2.48,2.52,2.46,2.6,4.99.02,9.72-9.93,19.97-19.33,29.45-29.5,3.49-3.75,7.45-6.92,12.6-8.17,12.84-3.12,26.87,5.66,30.08,18.9,2,8.27.68,15.62-5.84,21.73-15.08,14.15-28.86,29.58-43.37,44.29-1.58,1.6-2.9,3.34-3.76,5.46-4.68,11.56,4.33,21.49,12.62,23.98,7.14,2.14,12.51-.67,17.43-5.69,15.21-15.52,30.61-30.86,46.58-45.62,5.35-4.94,11.39-7.18,18.75-6.46,14.63,1.42,25.19,15.35,22.48,29.8-1.11,5.88-4.22,10.52-8.29,14.63-2.73,2.76-5.6,5.38-8.39,8.04.17.24.21.35.27.37.26.06.52.14.78.13,10.39-.18,18.94,3.99,26.5,10.84,8.12,7.36,16.07,14.9,23.7,22.76,1.93,1.98,3.94,3.86,6.25,5.42,4.7,3.17,9.55,3.62,14.59.83,4.38-2.42,7.78-5.93,10.7-9.91,4.64-6.33,4.42-12.29-.75-18.2-5.11-5.84-11-10.91-16.55-16.3-13.09-12.73-26.29-25.35-39.41-38.05-1.08-1.04-2.02-2.27-2.84-3.53-1.02-1.57-1.13-3.26.41-4.59,1.57-1.35,3.27-1.32,4.79.17,1.65,1.63,3.18,3.37,4.85,4.97,18.04,17.22,36.05,34.47,53.66,52.14,5.3,5.32,10.62,6.16,17.21,2.57,4.62-2.52,8.31-6.21,11.18-10.53,4.15-6.23,3.42-12.02-1.82-17.38-2.11-2.16-4.44-4.11-6.62-6.22-18.19-17.58-36.37-35.17-54.55-52.76-.96-.93-1.94-1.84-2.52-3.08-.73-1.56-.55-2.95.74-4.12,1.2-1.09,2.56-1.2,3.94-.37.68.41,1.31.93,1.88,1.48,17.03,16.48,34.02,32.99,51.07,49.44,4.55,4.38,8.91,9.02,14.32,12.39,4.54,2.83,9.29,2.91,13.88.09,3.28-2.01,6.11-4.6,8.67-7.48,5.8-6.53,5.47-16.26-.73-21.89-3.63-3.29-7.15-6.7-10.62-10.16-34.61-34.55-69.9-68.41-105.34-102.11-8.13-7.73-16.26-15.48-24.44-23.16-2.89-2.72-2.94-2.61-6.02-.24-4.87,3.75-9.67,7.6-14.73,11.08-2.5,1.72-3.49,3.35-3.06,6.53.53,3.99,1.31,8.57-1.65,11.84-6.03,6.66-12.01,13.43-19.07,19.04-3.68,2.92-8.01,4.24-12.8,3.23-9.25-1.95-15.04-8.96-15.11-18.71-.1-14.43.1-28.86-.02-43.29-.06-7.68,2.49-14.06,8.1-19.31,6.95-6.52,13.81-13.13,20.69-19.73,7.77-7.45,15.58-14.86,22.78-23.24ZM284.54,305.86h.02c0,5.7-.03,11.4.01,17.1.02,2.67-.1,5.32.24,8,.55,4.29,2.68,7.31,6.67,8.92,4.27,1.73,7.88.15,11-2.72,5.12-4.7,9.87-9.77,14.58-14.88,1.04-1.12,1.49-2.33,1.46-3.85-.07-3.47,0-6.95-.07-10.42-.03-1.46.44-2.53,1.62-3.43,7.78-5.95,15.48-12.01,23.3-17.91,3.52-2.66,4.02-2.53,7.37.26,5.02,4.16,9.34,9.04,14.05,13.52,24.2,23.02,48.46,45.97,72.53,69.13,14.63,14.08,28.97,28.47,43.36,42.8,1.69,1.68,2.67,1.93,4.4.04,7.31-7.97,13.76-16.56,19.55-25.69,6.01-9.47,10.03-19.65,11.5-30.77.94-7.06,3.55-13.37,7.71-19.11,2.52-3.47,5.2-6.83,8.42-9.64,2.24-1.95,1.93-3.38.3-5.52-25.7-33.72-51.5-67.36-77.81-100.61-1.71-2.16-2.91-2.35-5.17-.88-11.37,7.41-24.01,10.44-37.49,10.69-10.05.18-19.31-2.69-28.38-6.57-8.88-3.8-18.09-5.72-27.81-5.36-8.68.32-15.88,3.45-21.64,9.97-1.65,1.87-3.38,3.67-5.17,5.4-12.99,12.57-25.94,25.19-39.06,37.63-3.85,3.65-5.6,7.82-5.51,13.03.12,6.95.03,13.9.03,20.84ZM500.12,155.83c-.61.39-1.3.8-1.95,1.26-7.3,5.25-14.63,10.46-21.89,15.77-9.63,7.05-19.16,14.22-28.81,21.24-2.74,1.99-2.84,1.82-.77,4.5,35.4,45.78,70.82,91.56,106.15,137.4,1.71,2.21,3.07,2.61,5.13.87.34-.28.75-.48,1.1-.75,16.43-12.52,32.84-25.06,49.29-37.54,1.69-1.28,1.07-2.27.09-3.52-8.27-10.6-16.55-21.19-24.76-31.84-21.69-28.14-43.34-56.3-65-84.46-5.37-6.99-10.69-14.01-16.08-20.99-.62-.8-1.17-1.82-2.53-1.93ZM261.27,196.57c-.04-1.11-.95-1.35-1.54-1.8-5.82-4.41-11.64-8.82-17.51-13.17-11.02-8.17-22.11-16.24-33.07-24.49-2.17-1.63-3.43-1.49-4.91.7-1.69,2.51-3.6,4.87-5.45,7.26-22.05,28.44-44.09,56.89-66.16,85.31-11.42,14.7-22.88,29.37-34.33,44.05-2.28,2.93-2.31,2.94.66,5.08,9.4,6.77,18.54,13.87,27.69,20.97,7.32,5.68,14.67,11.32,21.92,17.07,1.86,1.48,2.92,1.2,4.25-.68,2.26-3.2,4.83-6.17,7.18-9.3,25.45-33.8,51.42-67.21,77.31-100.67,7.41-9.58,15.09-18.95,22.63-28.43.49-.62.91-1.3,1.32-1.89ZM296.64,517.15c3.66.29,7.18-1.43,10.23-4.52,11-11.15,22.08-22.24,33.1-33.37,4.38-4.43,8.96-8.68,12.79-13.62,5.67-7.32,4.24-18.67-3.02-24.46-7.46-5.95-16.58-5.5-23.9,1.45-9.04,8.58-17.99,17.26-26.81,26.06-5.98,5.97-12.39,11.52-17.93,17.94-2.23,2.59-4.17,5.37-4.61,8.87-1.49,11.88,7.4,21.79,20.14,21.66ZM274.24,379.98c-5.08.11-8.75,2.13-11.89,5.24-3.67,3.63-7.3,7.32-10.95,10.97-11.22,11.2-22.46,22.38-33.66,33.61-2.23,2.24-3.9,4.85-4.36,8.09-1.23,8.74,4.34,16.97,13.63,20.15,7.37,2.52,12,1.24,17.23-4.49,10.08-11.06,19.97-22.29,30.78-32.66,4.04-3.88,7.99-7.87,11.89-11.9,5.07-5.26,6.03-11.41,3.13-17.99-3.08-7.01-8.75-10.5-15.8-11.01ZM346.63,489.5c-3.59-.16-6.67,1.05-9.3,3.41-8.23,7.35-16.27,14.9-24.17,22.61-1.2,1.17-1.9,2.58-2.28,4.15-1.92,8.03,1.93,16.55,9.32,20.67,7.39,4.12,13.84,3.08,20.36-3.79,4.78-5.04,9.75-9.87,14.75-14.68,1.35-1.29,2.64-2.65,3.88-4.04,4.7-5.29,5.4-11.36,2.7-17.66-2.83-6.58-7.92-10.34-15.25-10.66ZM370.31,500c-.06.61-.16.87-.11,1.1,2.06,9.13-.61,16.83-7.09,23.36-2.44,2.46-4.87,4.94-7.37,7.35-1.15,1.11-1.26,1.97.04,3.03,5.45,4.45,10.34,9.51,15.54,14.23,5.03,4.56,10.56,5.01,16.44,1.63,3.13-1.8,5.73-4.21,7.92-7.05,5.06-6.55,4.96-13.06-.39-19.39-6.45-7.63-14.29-13.86-21.29-20.95-1.1-1.11-2.33-2.1-3.7-3.31Z"/>
</svg>