<?xml version="1.0" encoding="UTF-8"?>
<svg id="Layer_1" xmlns="http://www.w3.org/2000/svg" version="1.1" viewBox="0 0 706.43 706.43">
  <!-- Generator: Adobe Illustrator 29.7.0, SVG Export Plug-In . SVG Version: 2.1.1 Build 138)  -->
  <defs>
    <style>
      .st0 {
        fill: #fff;
      }
    </style>
  </defs>
  <path class="st0" d="M595.54,320.78c4.31,0,7.82-3.51,7.82-7.82s-3.51-7.82-7.82-7.82h-15.48c-.65-3.28-1.69-6.47-3.18-9.43v-104.31h15.16c4.31,0,7.82-3.51,7.98-7.82v-49.77c0-4.31-3.51-7.82-7.82-7.82h-62.69c-1.24-.29-2.49-.29-3.68,0h-35.4c-1.24-.29-2.49-.29-3.68,0H218.69c-.58-.06-1.16-.07-1.74,0h-37.5c-.58-.06-1.16-.07-1.74,0h-63.3c-4.31,0-7.82,3.51-7.82,7.82v49.77c0,4.31,3.51,7.82,7.82,7.82h15.16v104.03c-1.57,3.05-2.62,6.35-3.3,9.72h-15.36c-4.31,0-7.82,3.51-7.82,7.82s3.51,7.82,7.82,7.82h14.52v113.54c-5.43,8.23-8.61,18.05-8.61,28.6v67c0,4.31,3.51,7.82,7.82,7.82h19.46v27.28h-29.19c-4.31,0-7.82,3.51-7.82,7.82s3.51,7.82,7.82,7.82h476.83c4.31,0,7.82-3.51,7.82-7.82s-3.51-7.82-7.82-7.82h-28.24v-27.28h18.35c4.31,0,7.82-3.51,7.82-7.82v-67c0-10.66-3.24-20.58-8.77-28.86v-113.28h14.68ZM541.06,305.15c-1.37-6.98-4.7-13.44-9.81-18.67-28.71-29.35-43.23-64.13-43.23-103.05,0-19.15,3.8-34.31,6.1-41.8h22.78c-2.51,9.31-5.43,23.93-5.43,41.8,0,29.67,8.14,73.54,47.7,114.06.8.8,1.28,1.44,1.91,2.23,1.21,1.64,2.16,3.49,2.88,5.42h-22.9ZM499.66,320.78h26.48v91.25c-14.29,3.19-26.38,12.28-33.61,24.56h-32.96c-9.08-15.42-25.82-25.84-44.94-25.84s-35.85,10.42-44.94,25.84h-32.96c-9.08-15.42-25.82-25.84-44.94-25.84s-35.85,10.42-44.94,25.84h-32.96c-7.24-12.28-19.32-21.37-33.61-24.56v-91.25h26.48c4.31,0,7.82-3.51,7.82-7.82s-3.51-7.82-7.82-7.82h-25.11c1.01-2.79,2.55-5.36,4.69-7.5,36.23-37.11,46.08-77,47.48-106.25h238.77c1.43,29.24,11.31,69.04,47.48,106.09,2.08,2.25,3.63,4.85,4.67,7.66h-25.09c-4.31,0-7.82,3.51-7.82,7.82s3.51,7.82,7.82,7.82ZM220.01,452.23h20.74c-.73,3.45-1.12,7.03-1.12,10.69v14.2h-18.51v-14.2c0-3.66-.39-7.23-1.12-10.69ZM255.27,462.92c0-20.1,16.43-36.53,36.53-36.53s36.53,16.43,36.53,36.53v59.18h-17.57c-.51-.1-1.03-.16-1.57-.16s-1.07.06-1.57.16h-30.99c-.51-.1-1.03-.16-1.57-.16s-1.07.06-1.57.16h-18.21v-59.18ZM362.47,462.92v14.2h-18.51v-14.2c0-3.66-.39-7.23-1.12-10.69h20.74c-.73,3.45-1.12,7.03-1.12,10.69ZM282.87,537.74h18.51v27.12h-18.51v-27.12ZM317,537.74h19.14c4.31,0,7.82-3.51,7.82-7.82v-37.17h18.51v37.17c0,4.31,3.51,7.82,7.82,7.82h20.26v27.28h-73.54v-27.28ZM406.18,564.86v-27.12h18.51v27.12h-18.51ZM434.08,522.11c-.51-.1-1.03-.16-1.57-.16s-1.07.06-1.57.16h-30.99c-.51-.1-1.03-.16-1.57-.16s-1.07.06-1.57.16h-18.69v-59.18c0-20.1,16.43-36.53,36.53-36.53s36.53,16.43,36.53,36.53v59.18h-17.09ZM465.68,452.23h20.74c-.73,3.45-1.12,7.03-1.12,10.69v14.2h-18.51v-14.2c0-3.66-.39-7.23-1.12-10.69ZM145.35,299.73c.48-.64,1.12-1.44,1.75-2.07,39.56-40.52,47.7-84.39,47.7-114.06,0-17.97-2.96-32.66-5.48-41.96h23.01c2.3,7.39,6.07,22.57,6.07,41.96,0,38.92-14.52,73.54-43.23,103.06-4.95,5.18-8.32,11.59-9.75,18.5h-23c.71-1.9,1.65-3.73,2.92-5.42ZM472.58,175.77h-238.74c-.69-14.41-3.13-26.23-5.27-34.14h249.24c-2.14,7.94-4.56,19.75-5.23,34.14ZM561.24,276.33c-25.09-30.17-32.61-61.26-33.9-84.92h33.9v84.92ZM584.21,175.77h-56.89c.82-15.51,3.9-27.69,5.88-34.14h51.01v34.14ZM122.22,141.63h50.87c1.98,6.38,5.04,18.57,5.86,34.14h-56.73v-34.14ZM178.94,191.41c-1.26,23.54-8.74,54.7-33.74,84.88v-84.88h33.74ZM164.66,320.78v90.19c-8.63.71-16.67,3.55-23.61,7.98v-98.17h23.61ZM132.43,462.92c0-20.1,16.43-36.53,36.53-36.53s36.53,16.43,36.53,36.53v59.18h-17.89c-.51-.1-1.03-.16-1.57-.16s-1.06.06-1.57.16h-30.99c-.51-.1-1.03-.16-1.57-.16s-1.06.06-1.57.16h-17.89v-59.18ZM178.22,537.74v27.12h-18.51v-27.12h18.51ZM193.85,537.74h19.46c4.31,0,7.82-3.51,7.82-7.82v-37.17h18.51v37.17c0,4.31,3.51,7.82,7.82,7.82h19.78v27.28h-73.38v-27.28ZM440.32,565.02v-27.28h18.66c4.31,0,7.82-3.51,7.82-7.82v-37.17h18.51v37.17c0,4.31,3.51,7.82,7.82,7.82h20.58v27.28h-73.38ZM547.84,564.86h-18.51v-27.12h18.51v27.12ZM574,522.11h-16.77c-.51-.1-1.03-.16-1.57-.16s-1.07.06-1.57.16h-30.99c-.51-.1-1.03-.16-1.57-.16s-1.07.06-1.57.16h-19.01v-59.18c0-20.1,16.43-36.53,36.53-36.53s36.53,16.43,36.53,36.53v59.18ZM565.39,418.96c-6.94-4.43-14.98-7.27-23.61-7.98v-90.19h23.61v98.17Z"/>
</svg>