<?xml version="1.0" encoding="UTF-8"?>
<svg id="Layer_1" xmlns="http://www.w3.org/2000/svg" version="1.1" viewBox="0 0 706.43 706.43">
  <!-- Generator: Adobe Illustrator 29.7.0, SVG Export Plug-In . SVG Version: 2.1.1 Build 138)  -->
  <defs>
    <style>
      .st0 {
        fill: #fff;
        stroke: #fff;
        stroke-miterlimit: 10;
      }
    </style>
  </defs>
  <path class="st0" d="M259.4,580.65c-.55,0-1.11-.13-1.63-.4-1.54-.8-2.28-2.6-1.74-4.25l61.12-186.73-71.57,14.95c-1.44.3-2.92-.32-3.71-1.56s-.74-2.85.15-4.03L444.19,127.21c1.04-1.39,2.93-1.83,4.48-1.03,1.54.8,2.28,2.6,1.74,4.25l-61.12,186.73,71.57-14.93c1.44-.3,2.92.32,3.71,1.56.79,1.24.74,2.85-.15,4.03l-202.17,271.4c-.69.92-1.76,1.43-2.85,1.43ZM322.43,381c1,0,1.96.42,2.64,1.18.84.94,1.12,2.27.73,3.47l-56.28,171.93,183.61-246.48-68.42,14.27c-1.24.26-2.52-.16-3.37-1.11-.84-.94-1.12-2.27-.73-3.47l56.28-171.92-183.61,246.5,68.41-14.29c.24-.05.48-.08.73-.08Z"/>
</svg>