<?xml version="1.0" encoding="UTF-8"?>
<svg id="Layer_1" xmlns="http://www.w3.org/2000/svg" version="1.1" viewBox="0 0 706.43 706.43">
  <!-- Generator: Adobe Illustrator 29.7.0, SVG Export Plug-In . SVG Version: 2.1.1 Build 138)  -->
  <defs>
    <style>
      .st0 {
        fill: #92e02d;
      }

      .st1 {
        fill: #239134;
      }

      .st2 {
        fill: #3b9f1d;
      }

      .st3 {
        fill: #94e42b;
      }

      .st4 {
        fill: #41b555;
      }
    </style>
  </defs>
  <g>
    <path class="st0" d="M547.97,408.03c-128.82-29.77-220.16-128.56-241.56-258.29-64.42,52.57-128.83,105.15-193.25,157.72,49.8,144.15,208.36,268.13,325.74,246.23,54.4-47.03,72.71-97.1,109.06-145.65Z"/>
    <path class="st2" d="M536.66,423.14c-100.92-21.23-180.26-84.24-222.6-171.91-21.51,9-45.99,2.65-61.61-19.62-21.98,18.95-43.96,37.89-65.95,56.84,4.62,34.29,2.66,67.99-9.58,93.2,60.43,90.99,185.07,183.01,273.3,156.93,28.81-38.48,57.62-76.95,86.43-115.43Z"/>
    <path class="st3" d="M277.09,362.16c-11.34,11.83-31.65,9.08-43.4-7.96-11.8-17.01-9.35-41.65,3.38-53.3,12.78-11.7,29.9-6.29,40.31,10.54,10.35,16.88,11.11,38.87-.29,50.73Z"/>
    <path class="st3" d="M464.13,475.52c-20.27,27.2-73.77,47.9-125.68,25.64-52.25-22.1-62.47-78.05-33.3-108.94,29.3-31.41,79-25.51,122.29.19,43.1,26.33,57.36,55.62,36.7,83.11Z"/>
  </g>
  <g>
    <path class="st4" d="M593.27,364.13c-13.48,76.52-95.39,201.45-180.47,192.07,33.5-24.31,55.45-44.66,45.25-90.45,45.56-49.07,99.35-123.84,127.64-183.9l7.58,82.28Z"/>
    <path class="st1" d="M586.82,353.69c3.03,15.12,3.15,22.04,3.56,23.7-16.4,62.38-71.18,157.86-147.56,176.78,19.2-14.94,31.02-39.85,32.28-48.46,16.27-20.01,25.09-39.11,18.98-64,14.9-18.06,62-69.96,72.26-93.48,6.29,10.46,14.71,14.89,20.49,5.45Z"/>
    <path class="st3" d="M552.26,406.83c-14.46,20.21-22.11,37.02-23.45,48.04-1.34,11.03,4.23,8.16,20.2-10.76,15.02-17.81,23.87-37.48,23.44-47.15-.43-9.67-7.94-7.24-20.18,9.86Z"/>
  </g>
</svg>