<?xml version="1.0" encoding="UTF-8"?>
<svg id="Layer_1" xmlns="http://www.w3.org/2000/svg" version="1.1" viewBox="0 0 706.43 706.43">
  <!-- Generator: Adobe Illustrator 29.7.0, SVG Export Plug-In . SVG Version: 2.1.1 Build 138)  -->
  <defs>
    <style>
      .st0 {
        fill: #239134;
      }

      .st1 {
        fill: #94e42b;
      }
    </style>
  </defs>
  <path class="st1" d="M132.46,373.42c168.2,180.67,386.65,55.69,380.26-272.04,29.86,68.36,56.88,139.12,80.46,210.99-49.14,325.27-330.08,346.79-476.04,129.34.86-16.94,1.66-49.58,15.32-68.29Z"/>
  <path class="st0" d="M138.06,452c.4-7.86,4.8-23.13,9.75-30.16,28.92,25.56,54.07,31.9,65.84,26.04,121.91,63.85,248.49-7.9,292.58-183.17,9.34,8.39,23.01-5.58,30.93-44.36,8.83,24.63,17.26,49.45,25.27,74.39-5.65,53.11-12.94,99.97-13.63,132.85-73.65,164.16-227.84,204.17-364.38,87.63-5.41-15.79-19.64-28.63-46.37-63.21Z"/>
  <path class="st1" d="M186.69,474.63c2.84-5.38,21.07,1.76,41.07,11.44,19.98,9.82,34.79,20.94,32.91,29.37-1.85,8.31-20.61,8.52-41.58-4.33-20.97-12.75-35.25-31.22-32.4-36.48Z"/>
  <path class="st1" d="M499.11,412.56c-2.61-14.13,4.91-43.01,14.41-68.4,9.55-25.27,18.68-36.83,23.05-21.9,4.33,14.82.78,50.07-10.56,74.57-11.27,24.58-24.37,29.76-26.9,15.74Z"/>
  <path class="st1" d="M298.72,524.59c4.23-23.49,47.56-42.05,90.91-69.11,43.42-25.91,75.48-39.63,81.3-2.78,5.98,36.08-26.35,102.28-80.38,115.18-53.68,13.31-96.51-20.62-91.83-43.29Z"/>
</svg>