<?xml version="1.0" encoding="UTF-8"?>
<svg id="Layer_1" xmlns="http://www.w3.org/2000/svg" version="1.1" viewBox="0 0 706.43 706.43">
  <!-- Generator: Adobe Illustrator 29.7.0, SVG Export Plug-In . SVG Version: 2.1.1 Build 138)  -->
  <defs>
    <style>
      .st0 {
        fill: #34a853;
      }

      .st1 {
        fill: #fff;
      }
    </style>
  </defs>
  <rect class="st1" x="65.78" y="208.61" width="574.87" height="289.21" rx="7.08" ry="7.08"/>
  <rect class="st0" x="88.33" y="228.68" width="529.77" height="249.08"/>
  <g>
    <path class="st1" d="M332.69,264.22v-21.39h-183.83c0,25.14-20.35,45.54-45.49,45.62v129.55c25.13.07,45.49,20.47,45.49,45.62h183.83v-21.39c-32.62-10.76-56.56-46.53-56.56-89s23.95-78.24,56.56-89ZM178.51,396.1c-23.68,0-42.88-19.2-42.88-42.88s19.2-42.88,42.88-42.88,42.88,19.2,42.88,42.88-19.2,42.88-42.88,42.88Z"/>
    <path class="st1" d="M557.58,242.83h-183.83v21.39c32.62,10.76,56.56,46.53,56.56,89s-23.95,78.24-56.56,89v21.39h183.83c0-25.14,20.35-45.54,45.49-45.62v-129.55c-25.13-.07-45.49-20.47-45.49-45.62ZM527.93,396.1c-23.68,0-42.88-19.2-42.88-42.88s19.2-42.88,42.88-42.88,42.88,19.2,42.88,42.88-19.2,42.88-42.88,42.88Z"/>
  </g>
</svg>