<?xml version="1.0" encoding="UTF-8"?>
<svg id="Layer_1" xmlns="http://www.w3.org/2000/svg" version="1.1" viewBox="0 0 706.43 706.43">
  <!-- Generator: Adobe Illustrator 29.8.1, SVG Export Plug-In . SVG Version: 2.1.1 Build 2)  -->
  <defs>
    <style>
      .st0 {
        fill: #fff;
      }
    </style>
  </defs>
  <path class="st0" d="M510.3,160.03c22.56,0,44.85,27.92,29.94,52.03-11.45,18.54-65.96,57.91-67.87,72.74l35.74,216.8v.02s-42.59,44.78-42.59,44.78l-73.82-183.95-87.61,88.29,12.59,75.67-16.17,15.91-35.66-89.52-92.11-32.07c3.99-3.6,7.26-8.97,11.53-12.04,1.93-1.39,5.88-1.93,11.06-1.93,18.2,0,51.58,6.68,65.97,6.68,1.23,0,2.31-.05,3.24-.15l84.22-91.68-187.41-64.54,39.94-41.99,220.97,22.06c13.43-3.13,55.5-60.13,72.88-72.29,4.77-3.34,9.97-4.81,15.16-4.81M510.31,118.03s0,0,0,0c-14.08,0-27.65,4.29-39.24,12.4-10.94,7.65-22.47,20.34-40.16,40.32-5.87,6.63-14.46,16.33-20.89,22.95l-204.55-20.42c-1.39-.14-2.79-.21-4.18-.21-11.44,0-22.46,4.68-30.43,13.05l-39.94,41.99c-9.85,10.36-13.76,25.02-10.37,38.9,3.39,13.89,13.61,25.1,27.13,29.75l126.76,43.65-27.21,29.62c-3.3-.42-6.69-.88-9.69-1.28-14.63-1.97-29.75-4.01-42.2-4.01-9.41,0-23.35,1.02-35.61,9.85-6.63,4.77-11.19,10.16-14.2,13.73-.47.55-1.08,1.28-1.42,1.67-10.67,9.94-15.42,24.72-12.53,39.04,2.94,14.55,13.34,26.46,27.36,31.34l74,25.76,28.56,71.7c5.21,13.07,16.61,22.66,30.38,25.56,2.87.6,5.77.9,8.64.9,10.91,0,21.52-4.25,29.46-12.06l16.17-15.91c9.75-9.59,14.22-23.34,11.97-36.83l-9.06-54.46,27.46-27.68,50.03,124.66c5.32,13.27,17.03,22.91,31.07,25.61,2.63.5,5.28.75,7.91.75,11.39,0,22.42-4.64,30.43-13.05l42.6-44.78c9.44-9.93,13.29-23.62,10.86-36.64l-32.86-199.35c5.88-5.9,14.22-13.5,19.97-18.73,16.81-15.31,31.32-28.54,39.46-41.71,14.28-23.11,14.81-51.27,1.4-75.31-13.81-24.78-40.14-40.78-67.07-40.79h0Z"/>
</svg>