<?xml version="1.0" encoding="UTF-8"?>
<svg id="Layer_1" xmlns="http://www.w3.org/2000/svg" version="1.1" viewBox="0 0 706.43 706.43">
  <!-- Generator: Adobe Illustrator 29.7.0, SVG Export Plug-In . SVG Version: 2.1.1 Build 138)  -->
  <defs>
    <style>
      .st0 {
        fill: #fff;
      }

      .st1 {
        fill: #231f20;
      }
    </style>
  </defs>
  <g>
    <path class="st1" d="M430.98,284.52h-36.65c-9.31,0-16.86,7.55-16.86,16.86v165.34c0,9.31-7.55,16.86-16.86,16.86h-14.82c-9.31,0-16.86-7.55-16.86-16.86v-165.34c0-9.31-7.55-16.86-16.86-16.86h-36.62c-13.76,0-21.72-15.59-13.66-26.74l77.81-107.57c6.73-9.31,20.59-9.3,27.32,0l77.71,107.57c8.05,11.15.09,26.73-13.66,26.73Z"/>
    <path class="st1" d="M526.42,376.76v127.37c0,5.81-4.71,10.53-10.53,10.53H190.54c-5.81,0-10.53-4.71-10.53-10.53v-127.37c0-5.81-4.71-10.53-10.53-10.53h-27.49c-5.81,0-10.53,4.71-10.53,10.53v175.91c0,5.81,4.71,10.53,10.53,10.53h422.43c5.81,0,10.52-4.71,10.52-10.53v-175.91c0-5.81-4.71-10.53-10.52-10.53h-27.49c-5.81,0-10.53,4.71-10.53,10.53Z"/>
  </g>
  <g>
    <path class="st0" d="M430.98,284.52h-36.65c-9.31,0-16.86,7.55-16.86,16.86v165.34c0,9.31-7.55,16.86-16.86,16.86h-14.82c-9.31,0-16.86-7.55-16.86-16.86v-165.34c0-9.31-7.55-16.86-16.86-16.86h-36.62c-13.76,0-21.72-15.59-13.66-26.74l77.81-107.57c6.73-9.31,20.59-9.3,27.32,0l77.71,107.57c8.05,11.15.09,26.73-13.66,26.73Z"/>
    <path class="st0" d="M526.42,376.76v127.37c0,5.81-4.71,10.53-10.53,10.53H190.54c-5.81,0-10.53-4.71-10.53-10.53v-127.37c0-5.81-4.71-10.53-10.53-10.53h-27.49c-5.81,0-10.53,4.71-10.53,10.53v175.91c0,5.81,4.71,10.53,10.53,10.53h422.43c5.81,0,10.52-4.71,10.52-10.53v-175.91c0-5.81-4.71-10.53-10.52-10.53h-27.49c-5.81,0-10.53,4.71-10.53,10.53Z"/>
  </g>
</svg>